<?xml version="1.0" standalone="no"?>
<!DOCTYPE svg PUBLIC "-//W3C//DTD SVG 20010904//EN"
 "http://www.w3.org/TR/2001/REC-SVG-20010904/DTD/svg10.dtd">
<svg version="1.0" xmlns="http://www.w3.org/2000/svg"
 width="534.000000pt" height="442.000000pt" viewBox="0 0 534.000000 442.000000"
 preserveAspectRatio="none">

<g transform="translate(0.000000,442.000000) scale(0.100000,-0.100000)"
fill="#eeeeee" stroke="none">
<path d="M2365 4245 c-598 -88 -1127 -430 -1459 -943 -70 -107 -170 -320 -211
-448 l-37 -112 -283 -3 c-156 -2 -287 -7 -290 -11 -4 -4 61 -105 145 -225 236
-337 556 -784 587 -822 l29 -33 191 268 c106 148 277 391 381 539 l190 270
-157 6 c-86 4 -202 7 -258 8 -96 1 -103 2 -103 21 0 36 159 333 227 425 89
120 256 285 373 367 178 126 419 231 642 278 122 26 350 36 500 21 428 -42
859 -281 1132 -628 31 -40 61 -73 65 -73 8 0 236 165 295 212 l28 24 -62 79
c-90 115 -280 300 -390 382 -306 226 -655 365 -1011 403 -129 13 -415 11 -524
-5z"/>
<path d="M2498 3279 l-3 -121 -107 -32 c-130 -40 -202 -82 -278 -163 -183
-195 -182 -472 3 -653 96 -95 187 -133 541 -226 301 -80 347 -99 410 -177 25
-31 31 -49 34 -100 7 -121 -68 -211 -216 -258 -88 -28 -267 -30 -361 -5 -179
48 -267 136 -310 311 -11 42 -21 78 -23 80 -4 4 -222 -14 -255 -21 -20 -4 -23
-11 -23 -52 1 -216 141 -435 340 -530 47 -22 104 -45 128 -51 23 -6 60 -16 82
-21 l40 -11 0 -124 0 -125 155 0 155 0 0 120 0 120 28 6 c155 34 229 61 308
113 163 105 254 269 254 455 0 138 -37 233 -129 329 -108 113 -197 152 -599
256 -233 61 -296 84 -340 125 -81 73 -65 215 31 286 68 50 134 65 282 65 151
-1 220 -17 287 -68 53 -41 106 -140 115 -216 l6 -53 121 7 c159 9 164 10 171
49 9 43 -18 163 -50 227 -81 160 -205 256 -402 310 l-83 22 0 124 0 123 -155
0 -154 0 -3 -121z"/>
<path d="M4272 2483 c-105 -148 -276 -389 -380 -538 l-190 -270 157 -6 c86 -4
202 -7 259 -8 91 -1 102 -3 102 -19 0 -27 -131 -286 -187 -369 -242 -360 -632
-619 -1061 -704 -129 -25 -368 -35 -502 -20 -418 45 -816 262 -1097 597 -49
57 -93 102 -100 100 -10 -4 -225 -159 -283 -205 -32 -25 -24 -41 73 -158 308
-366 714 -607 1195 -710 120 -26 142 -27 392 -28 284 0 330 5 540 61 485 130
930 453 1203 874 96 149 194 361 241 521 l16 57 284 3 c156 2 287 7 291 11 4
3 -62 105 -146 225 -315 451 -602 853 -609 853 -4 0 -93 -120 -198 -267z"/>
</g>
</svg>
