<?xml version="1.0" standalone="no"?>
<!DOCTYPE svg PUBLIC "-//W3C//DTD SVG 20010904//EN"
 "http://www.w3.org/TR/2001/REC-SVG-20010904/DTD/svg10.dtd">
<svg version="1.0" xmlns="http://www.w3.org/2000/svg"
 width="512.000000pt" height="512.000000pt" viewBox="0 0 512.000000 512.000000"
 preserveAspectRatio="xMidYMid meet">

<g transform="translate(0.000000,512.000000) scale(0.100000,-0.100000)"
fill="#000000" stroke="none">
<path d="M1700 4080 c-112 -12 -224 -57 -312 -124 -29 -22 -895 -955 -950
-1022 -70 -88 -128 -257 -128 -374 0 -118 58 -286 129 -374 45 -56 813 -889
892 -967 76 -76 162 -127 269 -161 l75 -23 1300 0 c1437 0 1345 -4 1493 67
159 75 291 243 327 416 22 100 22 1984 0 2084 -35 167 -167 338 -316 412 -153
75 -41 70 -1444 72 -693 1 -1294 -2 -1335 -6z m2598 -365 c47 -20 107 -78 135
-130 l22 -40 0 -985 0 -985 -22 -40 c-12 -22 -39 -57 -60 -77 -75 -73 29 -68
-1390 -68 l-1278 0 -51 24 c-43 20 -112 91 -465 471 -444 480 -482 523 -507
570 -23 41 -23 169 0 210 25 47 63 90 507 570 353 380 422 451 465 471 l51 24
1278 0 c1131 0 1282 -2 1315 -15z"/>
<path d="M2890 3488 c-18 -13 -43 -36 -54 -51 -20 -27 -21 -41 -24 -368 l-3
-339 -317 0 c-332 -1 -368 -5 -414 -47 -29 -26 -58 -87 -58 -123 0 -36 29 -97
58 -123 46 -42 82 -46 414 -47 l317 0 3 -339 c3 -327 4 -341 24 -368 74 -99
204 -99 278 0 20 27 21 41 24 368 l3 339 317 0 c332 1 368 5 414 47 29 26 58
87 58 123 0 36 -29 97 -58 123 -46 42 -82 46 -414 47 l-317 0 -3 339 c-3 327
-4 341 -24 368 -37 49 -82 73 -139 73 -38 0 -61 -6 -85 -22z"/>
<path d="M1120 2815 c-106 -34 -180 -139 -180 -255 0 -203 206 -328 388 -236
153 78 191 279 77 414 -61 73 -190 108 -285 77z"/>
</g>
</svg>
