<?xml version="1.0" standalone="no"?>
<!DOCTYPE svg PUBLIC "-//W3C//DTD SVG 20010904//EN"
 "http://www.w3.org/TR/2001/REC-SVG-20010904/DTD/svg10.dtd">
<svg version="1.0" xmlns="http://www.w3.org/2000/svg"
 width="707.000000pt" height="644.000000pt" viewBox="0 0 707.000000 644.000000"
 preserveAspectRatio="xMidYMid meet">

<g transform="translate(0.000000,644.000000) scale(0.100000,-0.100000)"
fill="#000000" stroke="none">
<path d="M1565 6216 c-5 -3 -22 -7 -37 -10 -38 -9 -98 -63 -115 -105 -10 -24
-16 -95 -20 -241 l-6 -207 -405 -7 -406 -7 -49 -26 c-65 -32 -142 -106 -178
-168 l-29 -50 0 -2208 0 -2208 26 -51 c36 -71 108 -145 174 -178 l56 -28 1794
-7 1795 -8 89 -84 c253 -238 513 -369 830 -420 125 -19 403 -13 516 12 520
116 907 442 1099 927 69 174 94 318 95 548 1 183 -13 274 -66 440 -75 234
-191 424 -367 601 -217 216 -484 359 -776 413 -49 9 -99 19 -111 21 l-21 5 -8
1112 -7 1112 -25 50 c-32 63 -107 137 -170 170 l-50 25 -410 7 -411 7 -3 211
c-4 207 -5 212 -31 256 -41 71 -131 111 -204 91 -53 -15 -100 -50 -126 -96
-22 -38 -23 -53 -26 -252 l-4 -213 -1097 0 -1098 0 -6 220 c-6 248 -10 262
-82 312 -37 25 -105 43 -130 34z m305 -970 c26 -51 30 -71 30 -138 0 -67 -4
-87 -29 -136 -61 -119 -153 -176 -286 -176 -67 0 -88 4 -130 26 -62 32 -129
103 -158 166 -29 64 -29 178 0 242 21 46 69 110 82 110 5 0 11 -61 14 -135 7
-146 14 -170 68 -223 59 -58 152 -65 233 -19 64 36 79 77 83 231 3 72 6 137 9
145 7 23 50 -24 84 -93z m2112 -37 c9 -153 11 -160 50 -204 42 -49 83 -68 143
-68 55 0 98 18 131 55 44 48 54 82 60 217 8 148 15 157 63 90 50 -68 64 -119
59 -206 -6 -94 -31 -156 -85 -210 -152 -152 -417 -111 -512 78 -27 53 -31 73
-31 139 0 42 7 96 15 121 18 51 71 122 89 116 7 -2 14 -50 18 -128z m1168
-1539 l0 -510 -21 0 c-38 0 -215 -40 -295 -66 -514 -170 -906 -629 -999 -1168
-17 -101 -20 -354 -5 -461 16 -108 49 -231 91 -338 22 -53 39 -102 39 -107 0
-15 -3202 -12 -3259 3 -28 8 -52 22 -65 40 l-21 28 -3 1545 -2 1544 2270 0
2270 0 0 -510z m420 -829 c159 -36 312 -106 441 -201 87 -66 234 -219 291
-305 237 -361 263 -807 68 -1195 -163 -325 -468 -556 -830 -630 -91 -19 -128
-21 -270 -17 -198 6 -308 31 -469 107 -274 131 -499 371 -606 648 -94 245
-102 560 -19 807 116 348 411 642 754 754 159 52 225 61 395 56 108 -3 188
-11 245 -24z"/>
<path d="M1234 3765 l-27 -36 7 -232 c7 -223 8 -233 29 -249 33 -26 82 -30
297 -26 170 3 198 5 223 22 l27 18 0 247 c0 246 0 248 -23 269 -23 21 -31 22
-265 22 l-241 0 -27 -35z"/>
<path d="M2212 3793 c-46 -4 -54 -7 -64 -31 -6 -16 -13 -122 -16 -250 l-4
-224 33 -34 33 -34 230 0 230 0 28 27 28 27 -1 220 c-2 269 -3 277 -49 293
-33 11 -316 15 -448 6z"/>
<path d="M3077 3772 l-27 -28 0 -235 0 -235 28 -27 28 -27 235 0 235 0 27 28
27 28 0 234 0 234 -27 28 -27 28 -236 0 -236 0 -27 -28z"/>
<path d="M3993 3773 c-16 -24 -18 -57 -21 -261 l-4 -234 29 -30 28 -30 237 4
c270 4 265 2 279 85 4 26 8 136 8 242 l1 195 -27 28 -27 28 -243 0 -243 0 -17
-27z"/>
<path d="M1316 2881 c-79 -9 -92 -26 -102 -138 -7 -94 1 -367 12 -397 11 -29
52 -38 209 -43 203 -8 298 2 333 32 l27 23 0 219 c0 120 -3 230 -8 245 -15 54
-41 61 -235 64 -97 1 -203 -1 -236 -5z"/>
<path d="M2227 2882 c-39 -5 -63 -13 -72 -26 -19 -26 -27 -137 -23 -326 2
-138 6 -169 21 -191 l18 -27 194 -7 c225 -9 295 -3 321 27 17 18 19 40 19 247
0 124 -3 238 -8 253 -4 15 -17 32 -28 38 -24 13 -356 22 -442 12z"/>
<path d="M3086 2867 c-26 -19 -35 -86 -35 -283 -1 -188 2 -219 27 -251 16 -21
27 -22 248 -29 l232 -7 36 28 37 28 -3 236 c-3 211 -5 239 -22 264 l-18 27
-242 0 c-186 0 -246 -3 -260 -13z"/>
<path d="M1285 1964 c-11 -3 -30 -13 -43 -22 -23 -18 -23 -21 -25 -253 -2
-205 0 -238 15 -260 22 -35 52 -39 304 -39 280 0 254 -29 254 292 l0 246 -27
18 c-25 17 -51 19 -243 20 -118 1 -224 0 -235 -2z"/>
<path d="M2162 1937 l-32 -33 0 -230 0 -230 28 -27 28 -27 220 1 c120 1 233 4
249 8 47 10 54 45 54 295 l1 220 -27 28 -27 28 -231 0 -231 0 -32 -33z"/>
<path d="M3137 1961 c-82 -12 -81 -9 -85 -277 l-4 -235 28 -30 28 -29 235 0
235 0 28 27 28 27 0 236 0 236 -28 27 -28 27 -195 -1 c-106 -1 -215 -5 -242
-8z"/>
<path d="M5270 2424 c-95 -34 -94 -29 -95 -444 0 -312 2 -359 16 -380 34 -52
575 -583 607 -597 93 -39 199 63 160 155 -7 17 -129 151 -270 296 l-258 264 0
115 c0 62 -3 209 -7 325 l-6 212 -34 26 c-33 25 -85 38 -113 28z"/>
</g>
</svg>
