<?xml version="1.0" standalone="no"?>
<!DOCTYPE svg PUBLIC "-//W3C//DTD SVG 20010904//EN"
 "http://www.w3.org/TR/2001/REC-SVG-20010904/DTD/svg10.dtd">
<svg version="1.0" xmlns="http://www.w3.org/2000/svg"
 width="640.000000pt" height="640.000000pt" viewBox="0 0 640.000000 640.000000"
 preserveAspectRatio="xMidYMid meet">

<g transform="translate(0.000000,640.000000) scale(0.100000,-0.100000)"
fill="#000000" stroke="none">
<path d="M1066 5348 l-36 -36 0 -1890 0 -1890 31 -31 31 -31 273 0 273 0 4
-177 c2 -131 7 -184 17 -199 31 -47 41 -49 329 -52 l272 -3 0 -207 c0 -223 3
-233 57 -261 16 -8 444 -11 1548 -11 1645 0 1567 -2 1595 49 7 13 10 632 10
1908 l0 1889 -31 30 -30 29 -275 3 -274 3 0 200 c0 162 -3 206 -16 230 -30 59
-32 59 -607 59 l-524 0 -167 195 c-92 107 -176 199 -186 205 -11 6 -441 12
-1138 16 l-1121 7 -35 -35z m2046 -635 c3 -489 3 -486 53 -513 13 -7 162 -11
450 -13 l430 -2 0 -42 c-1 -24 -2 -590 -3 -1258 l-2 -1215 -1405 0 -1405 0 0
1750 0 1750 940 0 939 0 3 -457z m516 32 l299 -350 -300 -3 c-165 -1 -301 -1
-303 0 -6 6 -8 708 -2 706 3 -2 141 -160 306 -353z m1022 -1745 l0 -1750
-1400 0 -1400 0 0 110 0 110 1154 0 c710 0 1164 4 1180 10 14 5 33 21 42 35
16 24 17 129 22 1413 l4 1387 -26 38 c-15 21 -94 117 -176 212 -83 96 -150
176 -150 179 0 4 169 6 375 6 l375 0 0 -1750z m620 -490 l0 -1750 -1405 0
-1405 0 0 140 0 140 1163 2 c1278 3 1191 -1 1222 64 13 28 15 226 15 1593 l0
1561 205 0 205 0 0 -1750z"/>
<path d="M1510 4334 c-44 -17 -61 -30 -75 -61 -20 -42 -13 -82 21 -114 l26
-24 489 -3 c330 -2 496 1 509 8 11 6 27 25 36 42 22 42 11 90 -27 122 l-31 26
-221 0 c-122 0 -332 2 -467 5 -135 3 -252 2 -260 -1z"/>
<path d="M1459 3702 c-23 -21 -31 -37 -32 -64 -1 -45 17 -82 47 -96 15 -6 433
-13 1167 -17 1064 -7 1148 -7 1181 9 86 41 74 160 -20 186 -24 6 -426 10
-1174 10 l-1138 0 -31 -28z"/>
<path d="M1462 3105 c-57 -48 -46 -136 21 -168 33 -16 126 -17 1202 -15 l1167
3 29 33 c39 44 39 90 0 134 l-29 33 -1180 3 -1180 2 -30 -25z"/>
<path d="M1459 2572 c-26 -24 -32 -36 -32 -72 0 -36 6 -48 30 -70 l30 -27 789
-6 c434 -4 969 -7 1189 -7 380 0 402 1 432 20 34 20 53 66 45 107 -7 34 -48
70 -90 77 -20 3 -560 6 -1199 6 l-1163 0 -31 -28z"/>
</g>
</svg>
