<?xml version="1.0" standalone="no"?>
<!DOCTYPE svg PUBLIC "-//W3C//DTD SVG 20010904//EN"
 "http://www.w3.org/TR/2001/REC-SVG-20010904/DTD/svg10.dtd">
<svg version="1.0" xmlns="http://www.w3.org/2000/svg"
 width="250.000000pt" height="250.000000pt" viewBox="0 0 250.000000 250.000000"
 preserveAspectRatio="xMidYMid meet">

<g transform="translate(0.000000,250.000000) scale(0.100000,-0.100000)"
fill="#000000" stroke="none">
<path d="M1294 2130 c-61 -39 -46 33 -234 -1125 -47 -288 -80 -516 -77 -537
10 -73 65 -118 146 -118 42 0 56 5 84 30 19 16 39 42 45 57 10 24 91 508 228
1353 41 254 39 276 -21 329 -30 26 -44 31 -88 31 -35 0 -62 -7 -83 -20z"/>
<path d="M1599 1961 c-36 -35 -39 -43 -39 -92 l0 -53 282 -283 283 -283 -283
-283 -282 -283 0 -53 c0 -49 3 -57 39 -92 34 -35 44 -39 88 -39 28 0 59 7 73
16 36 24 617 602 651 648 34 46 40 116 13 156 -24 36 -602 617 -648 651 -31
23 -50 29 -89 29 -44 0 -53 -4 -88 -39z"/>
<path d="M755 1961 c-55 -26 -681 -655 -691 -694 -3 -16 -4 -47 -1 -69 5 -39
28 -64 334 -370 180 -181 340 -336 355 -344 55 -29 125 -11 167 42 25 32 28
101 7 142 -8 15 -134 146 -280 292 l-266 265 280 280 280 281 0 48 c0 62 -24
101 -75 126 -50 24 -59 24 -110 1z"/>
</g>
</svg>
