<?xml version="1.0" standalone="no"?>
<!DOCTYPE svg PUBLIC "-//W3C//DTD SVG 20010904//EN"
 "http://www.w3.org/TR/2001/REC-SVG-20010904/DTD/svg10.dtd">
<svg version="1.0" xmlns="http://www.w3.org/2000/svg"
 width="104.000000pt" height="140.000000pt" viewBox="0 0 104.000000 140.000000"
 preserveAspectRatio="xMidYMid meet">

<g transform="translate(0.000000,140.000000) scale(0.100000,-0.100000)"
fill="#000000" stroke="none">
<path d="M93 1370 c-25 -11 -51 -33 -63 -52 -19 -32 -20 -49 -20 -442 0 -401
0 -409 22 -444 33 -53 84 -72 201 -72 80 0 97 -3 97 -15 0 -9 -14 -86 -31
-171 -16 -86 -29 -157 -27 -159 2 -1 99 76 216 171 l212 174 102 0 c124 0 172
19 206 79 22 38 22 46 22 438 0 453 1 447 -80 490 -43 23 -47 23 -429 23 -359
0 -389 -2 -428 -20z m485 -422 l-3 -123 -70 0 -70 0 -3 123 -3 122 76 0 76 0
-3 -122z m-3 -213 l0 -60 -70 0 -70 0 -3 49 c-5 75 -2 77 75 74 l68 -3 0 -60z"/>
</g>
</svg>
