<?xml version="1.0" standalone="no"?>
<!DOCTYPE svg PUBLIC "-//W3C//DTD SVG 20010904//EN"
 "http://www.w3.org/TR/2001/REC-SVG-20010904/DTD/svg10.dtd">
<svg version="1.0" xmlns="http://www.w3.org/2000/svg"
 width="35.000000pt" height="100.000000pt" viewBox="0 0 35.000000 100.000000"
 preserveAspectRatio="xMidYMid meet">

<g transform="translate(0.000000,100.000000) scale(0.100000,-0.100000)"
fill="#000000" stroke="none">
<path d="M127 976 c-51 -19 -73 -40 -93 -92 -16 -42 -16 -50 22 -289 34 -221
40 -248 62 -270 32 -32 82 -33 117 -2 24 20 28 39 60 242 19 121 35 239 35
263 0 74 -43 131 -115 151 -48 13 -41 13 -88 -3z"/>
<path d="M133 226 c-35 -16 -63 -61 -63 -101 0 -94 110 -140 182 -76 28 25 33
36 33 75 0 37 -5 51 -30 76 -36 36 -79 45 -122 26z"/>
</g>
</svg>
