<?xml version="1.0" standalone="no"?>
<!DOCTYPE svg PUBLIC "-//W3C//DTD SVG 20010904//EN"
 "http://www.w3.org/TR/2001/REC-SVG-20010904/DTD/svg10.dtd">
<svg version="1.0" xmlns="http://www.w3.org/2000/svg"
 width="860.000000pt" height="1060.000000pt" viewBox="0 0 860.000000 1060.000000"
 preserveAspectRatio="xMidYMid meet">

<g transform="translate(0.000000,1060.000000) scale(0.100000,-0.100000)"
fill="#000000" stroke="none">
<path d="M3851 10190 c-13 -6 -41 -24 -62 -41 l-39 -31 0 -564 0 -564 47 -30
c87 -55 202 -34 234 43 11 26 14 136 14 562 0 577 1 565 -56 608 -31 22 -103
31 -138 17z"/>
<path d="M2041 9568 c-92 -45 -105 -133 -36 -234 95 -137 429 -518 603 -686
113 -110 134 -118 213 -78 87 45 102 124 39 217 -66 100 -329 411 -548 650
-145 157 -182 175 -271 131z"/>
<path d="M5562 9512 c-146 -148 -563 -631 -623 -721 -54 -82 -32 -188 45 -225
46 -22 92 -20 131 4 53 33 487 512 630 695 119 152 130 199 66 267 -37 41 -42
42 -109 46 l-71 4 -69 -70z"/>
<path d="M3480 8209 c-146 -28 -323 -181 -414 -358 l-48 -93 -9 -1622 c-4
-892 -11 -1629 -15 -1639 -5 -13 -30 13 -108 110 -114 145 -324 365 -426 448
-210 172 -464 256 -639 211 -104 -27 -186 -73 -271 -153 -90 -85 -134 -148
-163 -236 -27 -80 -29 -303 -4 -414 45 -199 138 -430 291 -728 160 -310 318
-569 944 -1550 190 -297 478 -751 640 -1010 316 -504 430 -677 488 -739 l36
-38 1122 11 c616 6 1176 14 1243 17 l121 6 108 76 c309 219 516 521 667 973
102 306 174 656 187 919 21 407 6 2253 -21 2419 -16 104 -57 181 -142 264
-158 156 -263 202 -467 202 -114 0 -133 -3 -223 -33 -53 -17 -104 -32 -112
-32 -15 0 -18 10 -30 84 -14 87 -104 226 -211 326 -157 147 -373 186 -621 114
-51 -14 -99 -24 -107 -21 -8 3 -30 48 -50 100 -51 131 -100 209 -177 282 -166
156 -396 203 -642 131 -48 -14 -89 -26 -91 -26 -12 0 -17 137 -26 655 -14 787
-26 940 -85 1040 -31 53 -223 239 -275 265 -74 38 -147 50 -290 49 -74 -1
-155 -5 -180 -10z"/>
</g>
</svg>
