<?xml version="1.0" standalone="no"?>
<!DOCTYPE svg PUBLIC "-//W3C//DTD SVG 20010904//EN"
 "http://www.w3.org/TR/2001/REC-SVG-20010904/DTD/svg10.dtd">
<svg version="1.0" xmlns="http://www.w3.org/2000/svg"
 width="640.000000pt" height="640.000000pt" viewBox="0 0 640.000000 640.000000"
 preserveAspectRatio="xMidYMid meet">

<g transform="translate(0.000000,640.000000) scale(0.100000,-0.100000)"
fill="#000000" stroke="none">
<path d="M1419 5600 c-55 -29 -97 -82 -104 -132 -3 -24 -5 -818 -3 -1765 l3
-1721 30 -43 c17 -23 48 -52 70 -63 38 -20 58 -21 387 -24 l347 -3 3 -447 3
-448 25 -49 c17 -31 44 -62 75 -85 l49 -35 1296 -3 c925 -2 1306 0 1333 8 49
14 115 74 138 125 18 38 19 117 19 1746 l0 1705 -26 53 c-32 64 -86 105 -155
120 -29 7 -175 11 -354 11 l-304 0 -3 463 -3 464 -30 48 c-20 32 -45 56 -74
72 l-44 23 -1321 0 c-1279 -1 -1322 -1 -1357 -20z m2326 -194 c-17 -11 -802
-476 -1340 -794 -88 -52 -166 -99 -173 -105 -8 -6 -28 -38 -45 -71 l-32 -61
-3 -1157 -2 -1158 -320 0 -320 0 0 1673 c0 921 3 1677 7 1680 3 4 511 7 1127
7 945 0 1117 -2 1101 -14z m292 -853 c-2 -2 -301 -2 -664 -1 l-660 3 661 391
661 391 3 -390 c1 -215 1 -392 -1 -394z m851 -1882 c1 -1224 -1 -1667 -9
-1677 -10 -12 -218 -14 -1263 -12 l-1251 3 -3 1665 c-1 916 0 1671 3 1678 3
10 261 12 1262 10 l1258 -3 3 -1664z"/>
<path d="M3558 3976 c-20 -7 -162 -117 -320 -247 -680 -561 -686 -566 -693
-599 -14 -66 35 -120 108 -120 27 0 50 13 113 64 l79 65 5 -492 c5 -464 6
-494 24 -524 28 -46 69 -72 131 -84 34 -6 281 -9 657 -7 642 3 621 2 676 52
58 52 57 39 60 569 l3 487 72 -60 c39 -33 85 -64 102 -69 64 -17 125 31 125
99 0 44 -16 60 -216 226 -73 60 -265 219 -428 354 -163 135 -319 257 -347 273
-56 30 -95 33 -151 13z m376 -451 l255 -210 1 -537 0 -538 -135 0 -135 0 0
168 c0 192 -7 216 -79 267 l-43 30 -171 0 c-194 0 -212 -5 -271 -78 l-31 -39
-3 -174 -4 -174 -134 0 -134 0 0 534 0 535 286 235 286 236 28 -22 c16 -13
143 -117 284 -233z m-214 -1155 l0 -130 -95 0 -95 0 0 130 0 130 95 0 95 0 0
-130z"/>
<path d="M3504 3446 c-112 -52 -180 -165 -171 -286 7 -111 70 -199 175 -248
47 -21 64 -24 131 -20 88 5 137 27 193 85 115 119 107 312 -18 422 -84 74
-211 93 -310 47z m168 -200 c28 -21 39 -61 27 -96 -13 -36 -36 -50 -83 -50
-68 0 -101 86 -51 135 27 28 79 33 107 11z"/>
<path d="M3192 1817 c-73 -41 -71 -151 4 -185 32 -15 810 -17 848 -2 30 11 66
65 66 97 0 38 -21 71 -55 88 -28 13 -92 15 -437 15 -304 -1 -409 -4 -426 -13z"/>
<path d="M2898 1433 c-76 -48 -58 -158 30 -183 25 -8 252 -10 717 -8 749 3
709 0 741 66 19 41 6 91 -33 122 -25 20 -39 20 -727 20 -635 -1 -704 -2 -728
-17z"/>
</g>
</svg>
