<?xml version="1.0" standalone="no"?>
<!DOCTYPE svg PUBLIC "-//W3C//DTD SVG 20010904//EN"
 "http://www.w3.org/TR/2001/REC-SVG-20010904/DTD/svg10.dtd">
<svg version="1.0" xmlns="http://www.w3.org/2000/svg"
 width="266.000000pt" height="264.000000pt" viewBox="0 0 266.000000 264.000000"
 preserveAspectRatio="xMidYMid meet">

<g transform="translate(0.000000,264.000000) scale(0.100000,-0.100000)"
fill="#000000" stroke="none">
<path d="M457 2450 c-106 -18 -199 -90 -245 -188 l-27 -57 0 -645 c0 -640 0
-645 22 -692 29 -63 96 -134 158 -166 l50 -27 695 -3 695 -2 215 -214 c118
-118 225 -219 237 -225 30 -15 69 -14 101 3 60 31 57 -17 57 1015 l0 946 -26
56 c-52 109 -138 177 -253 198 -70 13 -1603 13 -1679 1z m1702 -251 l31 -31 0
-781 0 -781 -133 131 c-73 73 -145 137 -160 142 -19 8 -258 11 -726 11 -679 0
-699 1 -723 20 -49 38 -49 38 -46 668 l3 594 33 29 32 29 829 0 829 0 31 -31z"/>
<path d="M1243 1990 c-17 -10 -37 -28 -42 -39 -7 -12 -11 -99 -11 -225 l0
-204 26 -31 c33 -39 83 -50 131 -27 55 26 63 59 63 267 0 205 -8 236 -65 263
-43 21 -63 20 -102 -4z"/>
<path d="M1263 1329 c-75 -22 -100 -124 -44 -180 59 -59 171 -26 187 56 14 78
-64 146 -143 124z"/>
</g>
</svg>
