<?xml version="1.0" standalone="no"?>
<!DOCTYPE svg PUBLIC "-//W3C//DTD SVG 20010904//EN"
 "http://www.w3.org/TR/2001/REC-SVG-20010904/DTD/svg10.dtd">
<svg version="1.0" xmlns="http://www.w3.org/2000/svg"
 width="840.000000pt" height="994.000000pt" viewBox="0 0 840.000000 994.000000"
 preserveAspectRatio="xMidYMid meet">

<g transform="translate(0.000000,994.000000) scale(0.100000,-0.100000)"
fill="#000000" stroke="none">
<path d="M1495 9630 c-515 -8 -511 -7 -670 -84 -115 -55 -242 -151 -311 -235
-64 -77 -144 -228 -173 -327 l-21 -71 0 -3943 c0 -3603 1 -3947 16 -3998 27
-94 63 -173 119 -257 111 -170 258 -284 465 -362 53 -20 94 -27 220 -34 85 -4
1514 -8 3174 -9 l3020 0 75 21 c184 50 361 162 481 304 58 69 139 220 168 315
19 64 20 116 27 3205 l7 3140 -163 161 c-90 88 -477 464 -859 835 -382 371
-851 826 -1041 1011 l-347 338 -1863 -2 c-1025 -1 -2071 -5 -2324 -8z m3608
-1357 c5 -877 2 -837 77 -1017 102 -245 371 -461 631 -506 43 -8 345 -14 875
-18 l809 -7 3 -2620 c1 -1441 -2 -2713 -6 -2826 -8 -198 -9 -207 -35 -251 -31
-54 -72 -90 -138 -124 l-49 -24 -3072 2 -3073 3 -46 21 c-66 31 -123 86 -150
147 l-24 52 0 3855 c0 3652 1 3858 18 3905 32 94 114 166 208 184 24 5 927 9
2005 10 l1961 1 6 -787z m969 180 c976 -950 1158 -1129 1158 -1141 0 -10 -123
-12 -657 -10 -648 3 -659 3 -703 24 -54 26 -142 116 -161 164 -10 28 -14 168
-17 659 -2 343 -1 630 2 638 4 10 10 11 23 4 10 -6 170 -158 355 -338z"/>
<path d="M1810 7890 l0 -290 1195 0 1195 0 0 290 0 290 -1195 0 -1195 0 0
-290z"/>
<path d="M1810 6430 l0 -290 1195 0 1195 0 0 290 0 290 -1195 0 -1195 0 0
-290z"/>
<path d="M1810 4970 l0 -290 2390 0 2390 0 0 290 0 290 -2390 0 -2390 0 0
-290z"/>
<path d="M1810 3510 l0 -290 2390 0 2390 0 0 290 0 290 -2390 0 -2390 0 0
-290z"/>
<path d="M1810 2050 l0 -290 2390 0 2390 0 0 290 0 290 -2390 0 -2390 0 0
-290z"/>
</g>
</svg>
