<?xml version="1.0" standalone="no"?>
<!DOCTYPE svg PUBLIC "-//W3C//DTD SVG 20010904//EN"
 "http://www.w3.org/TR/2001/REC-SVG-20010904/DTD/svg10.dtd">
<svg version="1.0" xmlns="http://www.w3.org/2000/svg"
 width="250.000000pt" height="249.000000pt" viewBox="0 0 250.000000 249.000000"
 preserveAspectRatio="xMidYMid meet">

<g transform="translate(0.000000,249.000000) scale(0.100000,-0.100000)"
fill="#000000" stroke="none">
<path d="M1623 2336 c-40 -13 -96 -39 -125 -57 -69 -43 -316 -285 -334 -326
-50 -116 54 -232 172 -193 26 9 82 55 180 151 129 126 147 139 200 155 108 31
225 -3 297 -87 45 -52 67 -116 67 -193 0 -106 -19 -133 -291 -403 -152 -151
-258 -248 -280 -257 -98 -41 -211 -25 -291 39 -83 68 -144 80 -205 40 -57 -38
-80 -124 -48 -184 37 -72 187 -165 307 -191 87 -19 238 -8 320 23 110 42 170
92 428 353 269 273 293 306 330 450 51 197 -2 386 -150 535 -120 122 -236 169
-410 169 -71 -1 -113 -7 -167 -24z"/>
<path d="M993 1650 c-75 -14 -155 -46 -220 -90 -85 -56 -542 -522 -580 -590
-69 -123 -92 -251 -70 -383 67 -387 482 -592 831 -409 54 28 104 69 210 172
76 74 144 147 152 162 20 39 17 105 -6 143 -34 55 -111 79 -175 55 -14 -5 -90
-72 -168 -148 -122 -119 -149 -140 -192 -153 -233 -67 -440 150 -355 373 17
46 54 87 267 301 216 215 255 250 301 267 103 39 192 22 294 -55 51 -38 67
-45 106 -45 84 0 143 54 144 132 1 56 -20 96 -74 140 -131 106 -310 155 -465
128z"/>
</g>
</svg>
