<?xml version="1.0" standalone="no"?>
<!DOCTYPE svg PUBLIC "-//W3C//DTD SVG 20010904//EN"
 "http://www.w3.org/TR/2001/REC-SVG-20010904/DTD/svg10.dtd">
<svg version="1.0" xmlns="http://www.w3.org/2000/svg"
 width="640.000000pt" height="640.000000pt" viewBox="0 0 640.000000 640.000000"
 preserveAspectRatio="xMidYMid meet">

<g transform="translate(0.000000,640.000000) scale(0.100000,-0.100000)"
fill="#000000" stroke="none">
<path d="M854 4983 c-12 -2 -34 -17 -49 -33 l-29 -30 -9 -1575 c-8 -1273 -7
-1581 3 -1606 8 -18 26 -37 44 -45 38 -17 1599 -356 1641 -355 17 0 372 83
790 186 l760 186 755 -190 c416 -105 770 -191 787 -191 22 0 41 9 62 31 l31
31 0 296 c0 163 -5 857 -10 1541 -11 1394 -4 1287 -85 1316 -79 28 -1513 395
-1546 395 -19 0 -372 -81 -786 -181 l-751 -180 -769 200 c-828 216 -808 211
-839 204z m836 -416 l665 -174 3 -214 c2 -118 0 -431 -3 -697 l-7 -482 -37 6
c-68 11 -157 62 -746 427 -484 299 -590 369 -589 386 0 12 1 226 2 477 l2 456
23 -6 c12 -3 321 -84 687 -179z m2210 -686 l0 -830 -46 -7 c-117 -17 -263 21
-415 110 -120 70 -202 97 -309 103 -152 9 -278 -30 -409 -127 -86 -63 -118
-84 -144 -93 -16 -6 -17 29 -15 675 l3 682 655 157 c360 87 661 158 668 158 9
1 12 -171 12 -828z m875 653 c352 -91 641 -167 642 -168 5 -4 8 -1216 3 -1216
-3 0 -25 36 -49 79 -122 222 -287 331 -521 347 -195 13 -390 -75 -508 -229
-92 -120 -194 -217 -228 -217 -12 0 -14 117 -14 791 0 748 1 790 18 785 9 -3
305 -80 657 -172z m-3210 -1346 c281 -173 529 -325 551 -336 47 -24 177 -62
211 -62 l23 0 0 -610 c0 -335 -3 -610 -7 -610 -5 -1 -317 66 -694 147 l-685
148 4 830 c2 456 5 836 7 843 3 9 15 6 42 -11 21 -13 268 -166 548 -339z
m3428 144 c102 -50 143 -104 297 -388 l135 -249 6 -565 c3 -311 5 -566 4 -567
0 -1 -298 73 -662 164 l-661 167 -4 491 c-2 269 -3 495 -1 500 2 6 23 18 46
28 107 44 228 146 324 273 103 138 199 186 359 181 79 -2 100 -7 157 -35z
m-1719 -327 c287 -151 343 -169 519 -170 l107 0 0 -470 0 -470 -658 -159
c-361 -88 -663 -161 -670 -164 -10 -3 -12 122 -10 618 l3 623 42 12 c54 16
143 66 213 120 108 84 174 106 299 101 73 -3 92 -8 155 -41z"/>
</g>
</svg>
