<?xml version="1.0" standalone="no"?>
<!DOCTYPE svg PUBLIC "-//W3C//DTD SVG 20010904//EN"
 "http://www.w3.org/TR/2001/REC-SVG-20010904/DTD/svg10.dtd">
<svg version="1.0" xmlns="http://www.w3.org/2000/svg"
 width="402.000000pt" height="356.000000pt" viewBox="0 0 402.000000 356.000000"
 preserveAspectRatio="xMidYMid meet">

<g transform="translate(0.000000,356.000000) scale(0.100000,-0.100000)"
fill="#000000" stroke="none">
<path d="M3453 3439 c-34 -10 -107 -87 -149 -158 l-24 -39 42 -35 c71 -57 301
-218 337 -236 l33 -16 35 40 c47 55 93 137 93 168 0 62 -19 85 -155 187 -128
95 -153 105 -212 89z"/>
<path d="M3164 3092 c-11 -15 -149 -202 -305 -417 -631 -865 -554 -742 -655
-1039 -80 -235 -106 -338 -93 -375 22 -61 51 -52 239 74 234 158 333 238 403
326 78 98 847 1151 847 1160 0 5 -282 219 -366 277 -41 27 -44 27 -70 -6z
m-645 -1350 c41 -32 76 -62 78 -69 5 -13 -187 -153 -209 -153 -25 0 -68 40
-68 63 0 12 16 73 36 134 l36 113 27 -16 c14 -9 59 -41 100 -72z"/>
<path d="M1040 2430 l-635 -5 -57 -27 c-77 -36 -141 -98 -178 -171 l-30 -60 0
-849 c0 -842 0 -849 21 -890 28 -54 103 -134 156 -165 32 -18 66 -27 135 -33
51 -5 774 -10 1606 -10 l1513 0 59 30 c78 39 160 121 193 193 l28 57 -10 844
c-9 827 -10 844 -30 884 -40 78 -145 173 -190 172 -16 -1 -328 -426 -319 -435
2 -3 76 -8 164 -12 l159 -8 0 -695 c0 -751 0 -751 -53 -787 -26 -17 -93 -18
-1579 -21 l-1553 -2 -36 33 c-29 26 -38 44 -45 83 -14 84 -11 1368 3 1382 9 9
200 12 798 12 432 0 808 3 835 6 48 6 51 8 83 63 18 31 87 131 152 221 66 91
124 173 130 183 12 19 28 19 -1320 7z"/>
<path d="M3131 1641 c-6 -11 -11 -35 -11 -53 0 -32 -3 -35 -52 -53 -156 -56
-203 -224 -91 -326 15 -14 76 -52 135 -84 122 -66 143 -89 135 -149 -8 -57
-35 -76 -106 -76 -64 0 -92 15 -111 59 -13 33 -20 36 -92 46 -47 6 -48 6 -48
-21 0 -78 74 -156 175 -184 40 -11 45 -16 45 -40 0 -43 10 -60 35 -60 25 0 35
17 35 59 0 24 6 30 42 40 127 38 184 131 154 248 -18 69 -30 80 -175 159 -130
71 -151 90 -151 142 0 59 30 92 83 92 57 0 87 -18 111 -65 21 -40 22 -40 84
-43 34 -2 62 1 62 6 0 5 -7 29 -15 53 -20 56 -85 122 -141 144 -42 16 -43 17
-46 68 -3 45 -6 52 -25 55 -14 2 -26 -4 -32 -17z"/>
<path d="M690 1280 l0 -110 585 0 585 0 0 110 0 110 -585 0 -585 0 0 -110z"/>
<path d="M680 830 l0 -110 835 0 835 0 0 110 0 110 -835 0 -835 0 0 -110z"/>
</g>
</svg>
