<?xml version="1.0" standalone="no"?>
<!DOCTYPE svg PUBLIC "-//W3C//DTD SVG 20010904//EN"
 "http://www.w3.org/TR/2001/REC-SVG-20010904/DTD/svg10.dtd">
<svg version="1.0" xmlns="http://www.w3.org/2000/svg"
 width="740.000000pt" height="720.000000pt" viewBox="0 0 740.000000 720.000000"
 preserveAspectRatio="xMidYMid meet">

<g transform="translate(0.000000,720.000000) scale(0.100000,-0.100000)"
fill="#000000" stroke="none">
<path d="M2985 7190 c-673 -69 -1267 -306 -1775 -710 -138 -110 -414 -388
-518 -521 -378 -488 -600 -1027 -674 -1634 -17 -143 -17 -576 0 -715 34 -269
95 -521 183 -758 382 -1026 1267 -1794 2347 -2037 216 -49 374 -66 634 -72
343 -8 568 15 864 87 165 40 344 98 344 113 1 19 -284 1097 -290 1097 -3 0
-25 -29 -50 -63 -65 -90 -193 -220 -283 -288 -72 -54 -228 -139 -255 -139 -9
0 -12 122 -12 494 l0 494 128 6 c70 3 175 10 233 14 l106 7 -52 195 c-28 107
-55 207 -58 222 -7 25 -9 26 -64 22 -32 -2 -111 -6 -175 -8 l-118 -4 0 567 0
568 178 7 c234 9 558 33 762 56 90 10 167 16 170 14 6 -7 7 -404 1 -518 l-4
-80 214 -92 c118 -50 217 -89 220 -85 15 14 32 306 33 570 l1 284 150 32 c195
42 359 86 518 139 83 28 130 39 133 32 11 -33 35 -221 45 -358 8 -118 8 -199
0 -318 -11 -157 -46 -398 -59 -412 -12 -11 -202 -84 -310 -118 l-104 -33 443
-189 c243 -104 445 -185 450 -181 4 4 22 51 39 103 204 629 206 1334 3 1964
-303 942 -1031 1702 -1963 2049 -227 84 -485 148 -740 182 -146 20 -560 28
-695 15z m-778 -852 c-301 -346 -541 -873 -652 -1428 -14 -74 -28 -140 -30
-147 -10 -32 -580 154 -695 227 -12 7 -2 33 54 144 270 537 724 973 1276 1226
47 21 89 39 93 39 5 1 -16 -27 -46 -61z m2209 3 c414 -198 766 -494 1031 -867
142 -199 311 -526 282 -545 -23 -14 -287 -97 -409 -128 -208 -53 -301 -70
-305 -58 -2 7 -18 81 -35 165 -115 571 -346 1072 -666 1450 -20 23 -33 42 -29
42 4 0 63 -27 131 -59z m-1376 -856 c0 -498 -3 -905 -7 -905 -220 0 -1039 71
-1058 92 -1 1 10 65 25 140 139 674 450 1229 825 1474 73 48 182 102 208 104
4 0 7 -407 7 -905z m575 855 c359 -180 676 -645 850 -1246 48 -164 103 -420
92 -430 -20 -21 -791 -84 -1023 -84 l-34 0 0 905 c0 498 3 905 8 905 4 0 52
-22 107 -50z m-2814 -1833 c126 -54 344 -126 489 -162 58 -14 121 -30 140 -35
l35 -9 1 -333 c0 -331 10 -485 47 -715 12 -76 12 -83 -3 -83 -28 0 -304 78
-408 116 -127 45 -344 153 -407 201 -50 39 -50 39 -64 123 -18 111 -20 574 -3
685 26 173 46 266 56 261 6 -2 59 -24 117 -49z m1354 -316 c263 -31 672 -60
838 -61 l47 0 0 -563 c0 -310 -2 -566 -4 -568 -6 -6 -338 8 -501 21 -219 17
-509 51 -519 60 -19 19 -68 321 -86 535 -5 66 -10 230 -10 364 l0 243 33 -6
c17 -3 109 -15 202 -25z m-1138 -1352 c120 -41 332 -97 567 -151 l59 -13 42
-125 c114 -338 292 -674 476 -895 114 -138 112 -130 22 -90 -314 143 -573 322
-808 559 -139 140 -226 246 -330 401 -65 98 -205 349 -205 370 0 4 8 4 18 0 9
-5 81 -30 159 -56z m1418 -264 c94 -8 231 -17 305 -20 74 -3 172 -8 218 -11
l82 -6 0 -494 c0 -416 -2 -494 -14 -494 -23 0 -188 86 -242 127 -253 191 -466
493 -614 872 l-21 54 58 -7 c32 -3 135 -13 228 -21z"/>
<path d="M3991 3539 c158 -454 1246 -3529 1249 -3529 3 0 74 208 159 463 85
254 189 562 231 685 l76 223 469 -526 c258 -289 473 -525 477 -525 4 0 61 48
128 106 99 87 118 109 109 120 -7 8 -218 245 -470 527 -252 282 -455 515 -451
518 4 3 325 68 715 145 389 76 707 141 707 144 -1 5 -3342 1640 -3384 1656
-14 6 -18 4 -15 -7z"/>
</g>
</svg>
