<?xml version="1.0" standalone="no"?>
<!DOCTYPE svg PUBLIC "-//W3C//DTD SVG 20010904//EN"
 "http://www.w3.org/TR/2001/REC-SVG-20010904/DTD/svg10.dtd">
<svg version="1.0" xmlns="http://www.w3.org/2000/svg"
 width="1024.000000pt" height="1024.000000pt" viewBox="0 0 1024.000000 1024.000000"
 preserveAspectRatio="xMidYMid meet">

<g transform="translate(0.000000,1024.000000) scale(0.100000,-0.100000)"
fill="#000000" stroke="none">
<path d="M4780 8943 c-609 -64 -1161 -230 -1760 -530 -170 -85 -265 -139 -310
-176 -121 -99 -210 -231 -262 -387 -29 -88 -31 -106 -32 -235 -1 -152 8 -204
56 -319 127 -310 424 -506 761 -506 174 1 289 38 427 140 532 392 1607 565
2083 336 106 -51 197 -138 244 -234 37 -75 38 -78 38 -191 0 -103 -3 -123 -26
-179 -114 -269 -367 -461 -735 -556 -167 -44 -301 -59 -519 -60 -216 0 -354
12 -565 51 -229 41 -300 48 -403 36 -186 -22 -333 -91 -469 -221 -138 -132
-212 -269 -244 -454 -37 -212 11 -427 136 -603 124 -175 191 -314 275 -570 29
-88 69 -230 90 -315 71 -293 86 -345 121 -420 102 -217 304 -381 544 -441 119
-30 318 -24 435 15 208 68 379 214 480 408 109 210 117 402 29 750 -13 53 -24
100 -24 105 0 5 51 14 113 21 1172 124 2187 832 2476 1727 156 481 112 962
-134 1460 -120 244 -236 404 -426 592 -137 134 -216 198 -377 304 -371 245
-876 413 -1344 449 -123 9 -598 12 -678 3z"/>
<path d="M4665 2929 c-156 -23 -324 -90 -457 -183 -64 -45 -208 -190 -208
-210 0 -6 -8 -19 -18 -30 -29 -33 -81 -158 -97 -232 -21 -100 -19 -255 4 -347
20 -76 85 -221 111 -247 3 -3 27 -32 55 -64 252 -301 719 -416 1130 -277 44
14 85 30 91 33 6 4 42 23 79 44 77 40 194 134 240 190 17 21 38 46 48 56 9 10
17 21 17 24 0 3 10 20 23 37 22 32 31 52 69 157 27 73 28 80 35 188 16 246
-108 501 -327 669 -204 157 -515 232 -795 192z"/>
</g>
</svg>
